<mxfile host="app.diagrams.net" modified="2023-04-10T18:19:22.310Z" agent="Mozilla/5.0 (X11; Linux x86_64) AppleWebKit/537.36 (KHTML, like Gecko) Chrome/111.0.0.0 Safari/537.36" etag="iIQK9v_qlZm99fn28dVl" version="21.1.5" type="device">
  <diagram name="Page-1" id="E6v29z3aRyA7fa2ds88h">
    <mxGraphModel dx="2228" dy="802" grid="1" gridSize="10" guides="1" tooltips="1" connect="1" arrows="1" fold="1" page="1" pageScale="1" pageWidth="850" pageHeight="1100" math="0" shadow="0">
      <root>
        <mxCell id="0" />
        <mxCell id="1" parent="0" />
        <mxCell id="V736ZTNSDjJ--1UBbocq-1" value="" style="outlineConnect=0;dashed=0;verticalLabelPosition=bottom;verticalAlign=top;align=center;html=1;shape=mxgraph.aws3.ec2;fillColor=#F58534;gradientColor=none;" parent="1" vertex="1">
          <mxGeometry x="390" y="240" width="50" height="60" as="geometry" />
        </mxCell>
        <mxCell id="V736ZTNSDjJ--1UBbocq-2" value="dev-sales-app01" style="text;html=1;strokeColor=none;fillColor=none;align=center;verticalAlign=middle;whiteSpace=wrap;rounded=0;" parent="1" vertex="1">
          <mxGeometry x="420" y="205" width="130" height="30" as="geometry" />
        </mxCell>
        <mxCell id="V736ZTNSDjJ--1UBbocq-3" value="" style="outlineConnect=0;dashed=0;verticalLabelPosition=bottom;verticalAlign=top;align=center;html=1;shape=mxgraph.aws3.ec2;fillColor=#F58534;gradientColor=none;" parent="1" vertex="1">
          <mxGeometry x="180" y="240" width="50" height="60" as="geometry" />
        </mxCell>
        <mxCell id="V736ZTNSDjJ--1UBbocq-4" value="dev-sales-lb" style="text;html=1;strokeColor=none;fillColor=none;align=center;verticalAlign=middle;whiteSpace=wrap;rounded=0;" parent="1" vertex="1">
          <mxGeometry x="145" y="190" width="120" height="30" as="geometry" />
        </mxCell>
        <mxCell id="V736ZTNSDjJ--1UBbocq-7" value="dev-sales-appsg" style="fillColor=none;strokeColor=#DD3522;verticalAlign=top;fontStyle=0;fontColor=#DD3522;whiteSpace=wrap;html=1;" parent="1" vertex="1">
          <mxGeometry x="520" y="255" width="130" height="30" as="geometry" />
        </mxCell>
        <mxCell id="V736ZTNSDjJ--1UBbocq-8" value="dev-sales-lbsg" style="fillColor=none;strokeColor=#DD3522;verticalAlign=top;fontStyle=0;fontColor=#DD3522;whiteSpace=wrap;html=1;" parent="1" vertex="1">
          <mxGeometry x="140" y="330" width="130" height="30" as="geometry" />
        </mxCell>
        <mxCell id="V736ZTNSDjJ--1UBbocq-9" value="" style="endArrow=classic;startArrow=classic;html=1;rounded=0;" parent="1" source="V736ZTNSDjJ--1UBbocq-3" target="V736ZTNSDjJ--1UBbocq-1" edge="1">
          <mxGeometry width="50" height="50" relative="1" as="geometry">
            <mxPoint x="400" y="420" as="sourcePoint" />
            <mxPoint x="450" y="370" as="targetPoint" />
          </mxGeometry>
        </mxCell>
        <mxCell id="V736ZTNSDjJ--1UBbocq-11" value="" style="endArrow=classic;startArrow=classic;html=1;rounded=0;entryX=0;entryY=0.5;entryDx=0;entryDy=0;entryPerimeter=0;" parent="1" target="V736ZTNSDjJ--1UBbocq-3" edge="1">
          <mxGeometry width="50" height="50" relative="1" as="geometry">
            <mxPoint x="30" y="270" as="sourcePoint" />
            <mxPoint x="450" y="370" as="targetPoint" />
          </mxGeometry>
        </mxCell>
        <mxCell id="V736ZTNSDjJ--1UBbocq-12" value="" style="sketch=0;outlineConnect=0;fontColor=#232F3E;gradientColor=none;fillColor=#232F3D;strokeColor=none;dashed=0;verticalLabelPosition=bottom;verticalAlign=top;align=center;html=1;fontSize=12;fontStyle=0;aspect=fixed;pointerEvents=1;shape=mxgraph.aws4.user;" parent="1" vertex="1">
          <mxGeometry x="-50" y="235" width="60" height="60" as="geometry" />
        </mxCell>
        <mxCell id="V736ZTNSDjJ--1UBbocq-16" value="haproxy" style="text;html=1;strokeColor=none;fillColor=none;align=center;verticalAlign=middle;whiteSpace=wrap;rounded=0;" parent="1" vertex="1">
          <mxGeometry x="220" y="230" width="60" height="30" as="geometry" />
        </mxCell>
        <mxCell id="V736ZTNSDjJ--1UBbocq-18" value="" style="endArrow=classic;html=1;rounded=0;exitX=0.5;exitY=1;exitDx=0;exitDy=0;exitPerimeter=0;" parent="1" source="V736ZTNSDjJ--1UBbocq-3" target="V736ZTNSDjJ--1UBbocq-8" edge="1">
          <mxGeometry width="50" height="50" relative="1" as="geometry">
            <mxPoint x="400" y="280" as="sourcePoint" />
            <mxPoint x="450" y="230" as="targetPoint" />
          </mxGeometry>
        </mxCell>
        <mxCell id="V736ZTNSDjJ--1UBbocq-19" value="" style="endArrow=classic;html=1;rounded=0;exitX=1;exitY=0.5;exitDx=0;exitDy=0;exitPerimeter=0;" parent="1" source="V736ZTNSDjJ--1UBbocq-1" target="V736ZTNSDjJ--1UBbocq-7" edge="1">
          <mxGeometry width="50" height="50" relative="1" as="geometry">
            <mxPoint x="400" y="280" as="sourcePoint" />
            <mxPoint x="450" y="230" as="targetPoint" />
          </mxGeometry>
        </mxCell>
        <mxCell id="V736ZTNSDjJ--1UBbocq-22" value="AWS&lt;br&gt;Terraform&lt;br&gt;Ansible&lt;br&gt;Docker" style="text;html=1;strokeColor=none;fillColor=none;align=center;verticalAlign=middle;whiteSpace=wrap;rounded=0;" parent="1" vertex="1">
          <mxGeometry x="340" y="50" width="60" height="90" as="geometry" />
        </mxCell>
        <mxCell id="V736ZTNSDjJ--1UBbocq-34" value="https" style="text;html=1;strokeColor=none;fillColor=none;align=center;verticalAlign=middle;whiteSpace=wrap;rounded=0;" parent="1" vertex="1">
          <mxGeometry x="67.5" y="240" width="60" height="30" as="geometry" />
        </mxCell>
        <mxCell id="b2KaegOksq6p1eNKrsWl-1" value="" style="image;sketch=0;aspect=fixed;html=1;points=[];align=center;fontSize=12;image=img/lib/mscae/Docker.svg;" vertex="1" parent="1">
          <mxGeometry x="430" y="285" width="50" height="41" as="geometry" />
        </mxCell>
      </root>
    </mxGraphModel>
  </diagram>
</mxfile>
